<?xml version="1.0" encoding="UTF-8" standalone="no"?>
<svg
   viewBox="0 0 5806.6665 2903.3333"
   height="2903.3333"
   width="5806.6665"
   xml:space="preserve"
   id="svg2"
   version="1.1"
   sodipodi:docname="banner.svg"
   inkscape:version="1.1 (c4e8f9e, 2021-05-24)"
   inkscape:export-filename="/Users/gbellomia/Documents/slack-archive/logo/banner.png"
   inkscape:export-xdpi="21.16"
   inkscape:export-ydpi="21.16"
   xmlns:inkscape="http://www.inkscape.org/namespaces/inkscape"
   xmlns:sodipodi="http://sodipodi.sourceforge.net/DTD/sodipodi-0.dtd"
   xmlns="http://www.w3.org/2000/svg"
   xmlns:svg="http://www.w3.org/2000/svg"
   xmlns:rdf="http://www.w3.org/1999/02/22-rdf-syntax-ns#"
   xmlns:cc="http://creativecommons.org/ns#"
   xmlns:dc="http://purl.org/dc/elements/1.1/"><sodipodi:namedview
     id="namedview834"
     pagecolor="#ffffff"
     bordercolor="#666666"
     borderopacity="1.0"
     inkscape:pageshadow="2"
     inkscape:pageopacity="0.0"
     inkscape:pagecheckerboard="0"
     showgrid="false"
     inkscape:zoom="0.15085789"
     inkscape:cx="3238.1468"
     inkscape:cy="1561.0718"
     inkscape:window-width="1920"
     inkscape:window-height="1027"
     inkscape:window-x="0"
     inkscape:window-y="25"
     inkscape:window-maximized="0"
     inkscape:current-layer="svg2"
     showguides="true"
     inkscape:guide-bbox="true"
     fit-margin-top="0"
     fit-margin-left="0"
     fit-margin-right="0"
     fit-margin-bottom="0"
     lock-margins="false"
     viewbox-width="2829.6965"><sodipodi:guide
       position="0,0"
       orientation="0.70710678,-0.70710678"
       id="guide1285" /><sodipodi:guide
       position="0,2903.3333"
       orientation="-0.70710678,-0.70710678"
       id="guide1287" /><sodipodi:guide
       position="356.66668,2546.6666"
       orientation="0,-1"
       id="guide1323" /><sodipodi:guide
       position="356.6667,2546.6666"
       orientation="1,0"
       id="guide1325" /><sodipodi:guide
       position="356.6667,356.6667"
       orientation="0,-1"
       id="guide1327" /><sodipodi:guide
       position="5453.3333,2546.6666"
       orientation="1,0"
       id="guide1329" /></sodipodi:namedview><metadata
     id="metadata8"><rdf:RDF><cc:Work
         rdf:about=""><dc:format>image/svg+xml</dc:format><dc:type
           rdf:resource="http://purl.org/dc/dcmitype/StillImage" /></cc:Work></rdf:RDF></metadata><defs
     id="defs6" /><g
     transform="matrix(1.3333333,0,0,-1.3333333,42.346562,2872.9635)"
     id="g10"
     style="fill-rule:nonzero"><g
       transform="scale(0.1)"
       id="g12"
       style="fill-rule:nonzero"><g
         transform="scale(1.30325)"
         id="g14"
         style="fill-rule:nonzero"><path
           id="path16"
           style="fill:#de0446;fill-opacity:1;fill-rule:nonzero;stroke:none;stroke-width:0.68569"
           d="M 2544.2698,2578.9566 H 13721.014 V 13755.646 H 2544.2698 V 2578.9566" /></g></g></g><g
     id="g2223"
     transform="translate(481.36263,393.32731)"><path
       id="path18"
       style="fill:#ffffff;fill-opacity:1;fill-rule:evenodd;stroke:none"
       d="m 12761.1,13333.1 c 96.6,168.1 193.2,334.9 289.8,503.1 l 2.5,3.7 h 117.9 599.7 l -3.8,-3.7 -289.8,-504.4 c -238.3,1.3 -478,1.3 -716.3,1.3 z m -796.6,-3344.6 357.5,-621 567,982.3 2012.3,3486.4 567.1,981 h -716.4 -219.5 c -593.4,1.2 -1185.6,2.5 -1777.7,3.7 v -3.7 h -264.7 l -567.1,-981 -523.1,-905.8 -146.7,-254.7 -420.3,-727.6 567,-982.3 c 267.2,462.9 533.2,925.8 799.2,1388.8 h 21.3 692.5 l -590.9,-1022.5 -567.1,-982.3 209.6,-361.3"
       transform="matrix(0.13333333,0,0,-0.13333333,-442.10927,2390.2727)" /><path
       id="path20"
       style="fill:#de0446;fill-opacity:1;fill-rule:evenodd;stroke:none"
       d="m 9235.87,14817.2 1386.23,-2398.7 1385,2398.7 z"
       transform="matrix(0.13333333,0,0,-0.13333333,-442.10927,2390.2727)" /><path
       id="path22"
       style="fill:#ffffff;fill-opacity:1;fill-rule:evenodd;stroke:none"
       d="m 8042.8,13836.2 802.89,-1391.3 h 1132.85 l -802.89,1391.3 -567.06,981 H 7475.77 6908.7 5774.61 l 567.06,-981 1086.44,-1881.8 565.77,-981.1 h 1134.08 253.43 313.62 L 10905.6,8877 l -283.5,-490.5 -1210.62,2095 H 8277.41 L 10055.1,7404.2 v 0 l 567,-982.3 565.8,982.3 283.5,490.5 567.1,982.3 -567.1,982.3 -642.3,1114 -567,981.1 H 9127.96 8697.67 8560.93 l -1085.16,1881.8 h 567.03"
       transform="matrix(0.13333333,0,0,-0.13333333,-442.10927,2390.2727)" /><g
       fill="none"
       id="g926"
       transform="matrix(1.5092007,0,0,1.5092007,878.15203,425.33751)"
       style="fill:#000000"><path
         d="m 27.2,95.504138 c 0,7.300012 -5.9,13.200032 -13.2,13.200032 -7.3,0 -13.2,-5.90002 -13.2,-13.200032 0,-7.3 5.9,-13.2 13.2,-13.2 h 13.2 z m 6.6,0 c 0,-7.3 5.9,-13.2 13.2,-13.2 7.3,0 13.2,5.9 13.2,13.2 v 33.000052 c 0,7.3 -5.9,13.2 -13.2,13.2 -7.3,0 -13.2,-5.9 -13.2,-13.2 z"
         fill="#e01e5a"
         id="path918"
         style="fill:#ffffff;fill-opacity:1" /><path
         d="m 47,42.504138 c -7.3,0 -13.2,-5.9 -13.2,-13.2 0,-7.300001 5.9,-13.200004 13.2,-13.200004 7.3,0 13.2,5.900003 13.2,13.200004 v 13.2 z m 0,6.7 c 7.3,0 13.2,5.9 13.2,13.2 0,7.3 -5.9,13.2 -13.2,13.2 H 13.9 c -7.3,0 -13.2,-5.9 -13.2,-13.2 0,-7.3 5.9,-13.2 13.2,-13.2 z"
         fill="#36c5f0"
         id="path920"
         style="fill:#ffffff;fill-opacity:1" /><path
         d="m 99.9,62.404138 c 0,-7.3 5.9,-13.2 13.2,-13.2 7.3,0 13.2,5.9 13.2,13.2 0,7.3 -5.9,13.2 -13.2,13.2 H 99.9 Z m -6.6,0 c 0,7.3 -5.9,13.2 -13.2,13.2 -7.3,0 -13.2,-5.9 -13.2,-13.2 v -33.1 c 0,-7.300001 5.9,-13.200004 13.2,-13.200004 7.3,0 13.2,5.900003 13.2,13.200004 z"
         fill="#2eb67d"
         id="path922"
         style="fill:#ffffff;fill-opacity:1" /><path
         d="m 80.1,115.30419 c 7.3,0 13.2,5.9 13.2,13.2 0,7.3 -5.9,13.2 -13.2,13.2 -7.3,0 -13.2,-5.9 -13.2,-13.2 v -13.2 z m 0,-6.60002 c -7.3,0 -13.2,-5.90002 -13.2,-13.200032 0,-7.3 5.9,-13.2 13.2,-13.2 h 33.1 c 7.3,0 13.2,5.9 13.2,13.2 0,7.300012 -5.9,13.200032 -13.2,13.200032 z"
         fill="#ecb22e"
         id="path924"
         style="fill:#ffffff;fill-opacity:1" /></g></g><g
     aria-label="SLACK-ARCHIVE"
     id="text2913"
     style="font-size:276.608px;line-height:1.25;font-family:'Simply Square JL';-inkscape-font-specification:'Simply Square JL, Normal';fill:#ffffff;stroke-width:6.91521"
     transform="translate(484.45585,482.69081)"><path
       d="M 186.18522,1762.428 H 97.670661 v -58.6409 H 76.648453 v 80.7695 H 208.31386 v -98.4724 L 97.670661,1639.614 v -55.3216 h 88.514559 v 53.1088 h 22.12864 v -74.131 H 76.648453 v 90.7275 l 109.536767,49.7894 z"
       id="path923" /><path
       d="M 248.40041,1762.428 V 1563.2702 H 227.3782 v 221.2864 h 131.66541 v -22.1286 z"
       id="path925" /><path
       d="m 383.4629,1584.2924 h 88.51456 v 105.1111 H 383.4629 Z m -21.02221,200.2642 h 22.12864 v -73.0245 h 87.40813 v 73.0245 H 494.1061 V 1563.2702 H 362.44069 Z"
       id="path927" /><path
       d="m 625.40849,1762.428 h -88.51456 v -178.1356 h 88.51456 v 61.9602 h 22.12864 v -82.9824 H 515.87172 v 221.2864 h 132.77184 v -87.4081 l -23.23507,0.2766 z"
       id="path929" /><path
       d="m 803.25874,1563.2702 h -29.87366 l -86.3017,86.3017 0.55322,-86.3017 h -21.57543 v 221.2864 h 21.02221 v -106.2174 l 25.44794,-25.448 66.38592,131.6654 h 25.44793 l -74.13094,-148.2618 z"
       id="path931" /><path
       d="m 823.91793,1688.2971 v -28.2141 l 71.91808,-0.5532 v 28.7673 z"
       id="path933" /><path
       d="m 940.46064,1584.2924 h 88.51456 v 105.1111 h -88.51456 z m -21.02221,200.2642 h 22.12864 v -73.0245 h 87.40813 v 73.0245 h 22.1286 V 1563.2702 H 919.43843 Z"
       id="path935" /><path
       d="m 1093.8917,1784.5566 v -99.5788 h 48.683 l 39.8315,39.8315 v 59.7473 h 22.6819 l 0.2766,-68.0455 -31.8099,-31.5333 h 30.9801 v -121.7076 h -131.6654 v 221.2864 z m 88.5145,-121.7075 h -88.5145 v -78.5567 h 88.5145 z"
       id="path937" /><path
       d="m 1335.8372,1762.428 h -88.5146 v -178.1356 h 88.5146 v 61.9602 h 22.1286 v -82.9824 h -131.6654 v 221.2864 h 132.7719 v -87.4081 l -23.2351,0.2766 z"
       id="path939" /><path
       d="m 1376.49,1784.5566 h 21.0222 v -99.5788 h 87.4081 v 99.5788 h 23.2351 v -221.2864 h -22.1286 v 99.5789 h -88.5146 l 0.5532,-99.5789 H 1376.49 Z"
       id="path941" /><path
       d="m 1530.4612,1784.5566 h 21.0222 l 0.5532,-221.2864 h -21.5754 z"
       id="path943" /><path
       d="m 1654.991,1784.5566 h -25.4479 l -55.3216,-221.2864 h 24.3415 l 44.2572,175.9227 47.5766,-177.0291 h 27.6608 z"
       id="path945" /><path
       d="m 1844.7787,1662.8491 h -89.621 v -78.5567 h 110.6432 v -21.0222 h -131.6654 v 221.2864 h 131.6654 v -22.1286 h -110.6432 v -77.4502 h 89.621 z"
       id="path947" /></g><g
     aria-label="Generate HTML archives
of Slack workspaces

- Static
 
- User-based

- Incremental"
     id="text3298"
     style="font-size:36.5364px;line-height:1.25;fill:#1a1a1a;stroke-width:0.91341"><path
       d="m 3008.7588,749.48727 h -56.12 v -112.9415 h 56.12 v 39.284 h 14.03 v -52.6125 h -83.4785 v 140.3 h 84.18 v -68.0455 h -42.7915 v 14.7315 h 28.06 z"
       style="font-size:175.375px;font-family:'Simply Square JL';-inkscape-font-specification:'Simply Square JL, Normal'"
       id="path31407" /><path
       d="m 3105.3685,686.35227 h -56.8215 v -49.8065 h 70.15 v -13.3285 h -83.4785 v 140.3 h 83.4785 v -14.03 h -70.15 v -49.105 h 56.8215 z"
       style="font-size:175.375px;font-family:'Simply Square JL';-inkscape-font-specification:'Simply Square JL, Normal'"
       id="path31409" /><path
       d="m 3203.5621,763.51727 v -140.3 h -15.433 v 112.9415 l -44.896,-112.9415 h -19.642 v 140.3 h 15.433 v -107.3295 l 42.7915,107.3295 z"
       style="font-size:175.375px;font-family:'Simply Square JL';-inkscape-font-specification:'Simply Square JL, Normal'"
       id="path31411" /><path
       d="m 3287.9366,686.35227 h -56.8215 v -49.8065 h 70.15 v -13.3285 h -83.4785 v 140.3 h 83.4785 v -14.03 h -70.15 v -49.105 h 56.8215 z"
       style="font-size:175.375px;font-family:'Simply Square JL';-inkscape-font-specification:'Simply Square JL, Normal'"
       id="path31413" /><path
       d="m 3319.4877,763.51727 v -63.135 h 30.866 l 25.254,25.254 v 37.881 h 14.3807 l 0.1754,-43.14225 -20.1681,-19.99275 h 19.642 v -77.165 h -83.4785 v 140.3 z m 56.12,-77.165 h -56.12 v -49.8065 h 56.12 z"
       style="font-size:175.375px;font-family:'Simply Square JL';-inkscape-font-specification:'Simply Square JL, Normal'"
       id="path31415" /><path
       d="m 3416.766,636.54577 h 56.12 v 66.6425 h -56.12 z m -13.3285,126.9715 h 14.03 v -46.299 h 55.4185 v 46.299 h 14.03 v -140.3 h -83.4785 z"
       style="font-size:175.375px;font-family:'Simply Square JL';-inkscape-font-specification:'Simply Square JL, Normal'"
       id="path31417" /><path
       d="m 3550.5223,763.51727 v -126.9715 h 33.672 v -13.3285 h -83.4785 v 13.3285 h 35.7765 v 126.9715 z"
       style="font-size:175.375px;font-family:'Simply Square JL';-inkscape-font-specification:'Simply Square JL, Normal'"
       id="path31419" /><path
       d="m 3662.6637,686.35227 h -56.8215 v -49.8065 h 70.15 v -13.3285 h -83.4785 v 140.3 h 83.4785 v -14.03 h -70.15 v -49.105 h 56.8215 z"
       style="font-size:175.375px;font-family:'Simply Square JL';-inkscape-font-specification:'Simply Square JL, Normal'"
       id="path31421" /><path
       d="m 3728.1553,763.51727 h 13.3285 v -63.135 h 55.4185 v 63.135 h 14.7315 v -140.3 h -14.03 v 63.135 h -56.12 l 0.3507,-63.135 h -13.6792 z"
       style="font-size:175.375px;font-family:'Simply Square JL';-inkscape-font-specification:'Simply Square JL, Normal'"
       id="path31423" /><path
       d="m 3875.5826,763.51727 v -126.9715 h 33.672 v -13.3285 h -83.4785 v 13.3285 h 35.7765 v 126.9715 z"
       style="font-size:175.375px;font-family:'Simply Square JL';-inkscape-font-specification:'Simply Square JL, Normal'"
       id="path31425" /><path
       d="m 3917.574,763.51727 h 15.433 v -107.3295 l 42.7915,107.3295 h 12.627 l 39.9855,-107.3295 v 107.3295 h 14.7315 l 0.5261,-140.3 h -20.1681 l -41.3885,112.9415 -44.896,-112.9415 h -19.642 z"
       style="font-size:175.375px;font-family:'Simply Square JL';-inkscape-font-specification:'Simply Square JL, Normal'"
       id="path31427" /><path
       d="m 4071.3395,749.48727 v -126.27 h -13.3285 v 140.3 h 83.4785 v -14.03 z"
       style="font-size:175.375px;font-family:'Simply Square JL';-inkscape-font-specification:'Simply Square JL, Normal'"
       id="path31429" /><path
       d="m 4204.2409,636.54577 h 56.12 v 66.6425 h -56.12 z m -13.3285,126.9715 h 14.03 v -46.299 h 55.4185 v 46.299 h 14.03 v -140.3 h -83.4785 z"
       style="font-size:175.375px;font-family:'Simply Square JL';-inkscape-font-specification:'Simply Square JL, Normal'"
       id="path31431" /><path
       d="m 4301.5192,763.51727 v -63.135 h 30.866 l 25.254,25.254 v 37.881 h 14.3807 l 0.1754,-43.14225 -20.1681,-19.99275 h 19.642 v -77.165 h -83.4785 v 140.3 z m 56.12,-77.165 h -56.12 v -49.8065 h 56.12 z"
       style="font-size:175.375px;font-family:'Simply Square JL';-inkscape-font-specification:'Simply Square JL, Normal'"
       id="path31433" /><path
       d="m 4454.9175,749.48727 h -56.12 v -112.9415 h 56.12 v 39.284 h 14.03 v -52.6125 h -83.4785 v 140.3 h 84.18 v -55.4185 l -14.7315,0.17538 z"
       style="font-size:175.375px;font-family:'Simply Square JL';-inkscape-font-specification:'Simply Square JL, Normal'"
       id="path31435" /><path
       d="m 4480.6921,763.51727 h 13.3285 v -63.135 h 55.4185 v 63.135 h 14.7315 v -140.3 h -14.03 v 63.135 h -56.12 l 0.3508,-63.135 h -13.6793 z"
       style="font-size:175.375px;font-family:'Simply Square JL';-inkscape-font-specification:'Simply Square JL, Normal'"
       id="path31437" /><path
       d="m 4578.313,763.51727 h 13.3285 l 0.3507,-140.3 h -13.6792 z"
       style="font-size:175.375px;font-family:'Simply Square JL';-inkscape-font-specification:'Simply Square JL, Normal'"
       id="path31439" /><path
       d="m 4657.2674,763.51727 h -16.1345 l -35.075,-140.3 h 15.433 l 28.06,111.5385 30.1645,-112.24 h 17.5375 z"
       style="font-size:175.375px;font-family:'Simply Square JL';-inkscape-font-specification:'Simply Square JL, Normal'"
       id="path31441" /><path
       d="m 4777.5965,686.35227 h -56.8215 v -49.8065 h 70.15 v -13.3285 h -83.4785 v 140.3 h 83.4785 v -14.03 h -70.15 v -49.105 h 56.8215 z"
       style="font-size:175.375px;font-family:'Simply Square JL';-inkscape-font-specification:'Simply Square JL, Normal'"
       id="path31443" /><path
       d="m 4865.2676,749.48727 h -56.12 v -37.1795 h -13.3285 v 51.2095 h 83.4785 v -62.4335 l -70.15,-29.463 v -35.075 h 56.12 v 33.672 h 14.03 v -47.0005 h -83.4785 v 57.523 l 69.4485,31.5675 z"
       style="font-size:175.375px;font-family:'Simply Square JL';-inkscape-font-specification:'Simply Square JL, Normal'"
       id="path31445" /><path
       d="m 3008.7588,968.70602 h -56.12 v -112.9415 h 56.12 z m -69.4485,-126.27 v 140.3 h 83.4785 v -140.3 z"
       style="font-size:175.375px;font-family:'Simply Square JL';-inkscape-font-specification:'Simply Square JL, Normal'"
       id="path31447" /><path
       d="m 3106.3961,905.57102 h -56.8215 v -49.8065 h 70.15 v -13.3285 h -83.4785 v 140.3 h 13.3285 v -63.135 h 56.8215 z"
       style="font-size:175.375px;font-family:'Simply Square JL';-inkscape-font-specification:'Simply Square JL, Normal'"
       id="path31449" /><path
       d="m 3239.6235,968.70602 h -56.12 v -37.1795 h -13.3285 v 51.2095 h 83.4785 v -62.4335 l -70.15,-29.463 v -35.075 h 56.12 v 33.672 h 14.03 v -47.0005 h -83.4785 v 57.523 l 69.4485,31.5675 z"
       style="font-size:175.375px;font-family:'Simply Square JL';-inkscape-font-specification:'Simply Square JL, Normal'"
       id="path31451" /><path
       d="m 3279.0692,968.70602 v -126.27 h -13.3285 v 140.3 h 83.4785 v -14.03 z"
       style="font-size:175.375px;font-family:'Simply Square JL';-inkscape-font-specification:'Simply Square JL, Normal'"
       id="path31453" /><path
       d="m 3364.7015,855.76452 h 56.12 v 66.6425 h -56.12 z m -13.3285,126.9715 h 14.03 v -46.299 h 55.4185 v 46.299 h 14.03 v -140.3 h -83.4785 z"
       style="font-size:175.375px;font-family:'Simply Square JL';-inkscape-font-specification:'Simply Square JL, Normal'"
       id="path31455" /><path
       d="m 3518.0999,968.70602 h -56.12 v -112.9415 h 56.12 v 39.284 h 14.03 v -52.6125 h -83.4785 v 140.3 h 84.18 v -55.4185 l -14.7315,0.17538 z"
       style="font-size:175.375px;font-family:'Simply Square JL';-inkscape-font-specification:'Simply Square JL, Normal'"
       id="path31457" /><path
       d="M 3630.8605,842.43602 H 3611.92 l -54.717,54.717 0.3508,-54.717 h -13.6793 v 140.3 h 13.3285 v -67.344 l 16.1345,-16.1345 42.09,83.4785 h 16.1345 l -47.0005,-94.001 z"
       style="font-size:175.375px;font-family:'Simply Square JL';-inkscape-font-specification:'Simply Square JL, Normal'"
       id="path31459" /><path
       d="m 3688.4219,842.43602 h 15.433 l 28.7615,108.7325 29.463,-109.434 h 11.9255 l 29.463,108.7325 32.269,-108.031 h 16.836 l -42.09,140.3 h -12.627 l -30.866,-100.3145 -26.657,100.3145 h -16.836 z"
       style="font-size:175.375px;font-family:'Simply Square JL';-inkscape-font-specification:'Simply Square JL, Normal'"
       id="path31461" /><path
       d="m 3931.8753,968.70602 h -56.12 v -112.9415 h 56.12 z m -69.4485,-126.27 v 140.3 h 83.4785 v -140.3 z"
       style="font-size:175.375px;font-family:'Simply Square JL';-inkscape-font-specification:'Simply Square JL, Normal'"
       id="path31463" /><path
       d="m 3972.691,982.73602 v -63.135 h 30.866 l 25.254,25.254 v 37.881 h 14.3808 l 0.1754,-43.14225 -20.1682,-19.99275 h 19.642 v -77.165 h -83.4785 v 140.3 z m 56.12,-77.165 h -56.12 v -49.8065 h 56.12 z"
       style="font-size:175.375px;font-family:'Simply Square JL';-inkscape-font-specification:'Simply Square JL, Normal'"
       id="path31465" /><path
       d="m 4143.6269,842.43602 h -18.9405 l -54.717,54.717 0.3507,-54.717 h -13.6792 v 140.3 h 13.3285 v -67.344 l 16.1345,-16.1345 42.09,83.4785 h 16.1345 l -47.0005,-94.001 z"
       style="font-size:175.375px;font-family:'Simply Square JL';-inkscape-font-specification:'Simply Square JL, Normal'"
       id="path31467" /><path
       d="m 4223.3677,968.70602 h -56.12 v -37.1795 h -13.3285 v 51.2095 h 83.4785 v -62.4335 l -70.15,-29.463 v -35.075 h 56.12 v 33.672 h 14.03 v -47.0005 h -83.4785 v 57.523 l 69.4485,31.5675 z"
       style="font-size:175.375px;font-family:'Simply Square JL';-inkscape-font-specification:'Simply Square JL, Normal'"
       id="path31469" /><path
       d="m 4249.4849,982.73602 h 13.3285 v -63.135 h 70.15 v -77.165 h -83.4785 z m 13.3285,-77.165 v -49.8065 h 56.12 v 49.8065 z"
       style="font-size:175.375px;font-family:'Simply Square JL';-inkscape-font-specification:'Simply Square JL, Normal'"
       id="path31471" /><path
       d="m 4354.6112,855.76452 h 56.12 v 66.6425 h -56.12 z m -13.3285,126.9715 h 14.03 v -46.299 h 55.4185 v 46.299 h 14.03 v -140.3 h -83.4785 z"
       style="font-size:175.375px;font-family:'Simply Square JL';-inkscape-font-specification:'Simply Square JL, Normal'"
       id="path31473" /><path
       d="m 4508.0095,968.70602 h -56.12 v -112.9415 h 56.12 v 39.284 h 14.03 v -52.6125 h -83.4785 v 140.3 h 84.18 v -55.4185 l -14.7315,0.17538 z"
       style="font-size:175.375px;font-family:'Simply Square JL';-inkscape-font-specification:'Simply Square JL, Normal'"
       id="path31475" /><path
       d="m 4603.9342,905.57102 h -56.8215 v -49.8065 h 70.15 v -13.3285 h -83.4785 v 140.3 h 83.4785 v -14.03 h -70.15 v -49.105 h 56.8215 z"
       style="font-size:175.375px;font-family:'Simply Square JL';-inkscape-font-specification:'Simply Square JL, Normal'"
       id="path31477" /><path
       d="m 4691.6052,968.70602 h -56.12 v -37.1795 h -13.3285 v 51.2095 h 83.4785 v -62.4335 l -70.15,-29.463 v -35.075 h 56.12 v 33.672 h 14.03 v -47.0005 h -83.4785 v 57.523 l 69.4485,31.5675 z"
       style="font-size:175.375px;font-family:'Simply Square JL';-inkscape-font-specification:'Simply Square JL, Normal'"
       id="path31479" /><path
       d="m 2942.1163,1360.143 v -17.8882 l 45.5975,-0.3508 v 18.239 z"
       style="font-size:175.375px;font-family:'Simply Square JL';-inkscape-font-specification:'Simply Square JL, Normal'"
       id="path31481" /><path
       d="m 3119.3958,1407.1435 h -56.12 v -37.1795 h -13.3285 v 51.2095 h 83.4785 V 1358.74 l -70.15,-29.463 v -35.075 h 56.12 v 33.672 h 14.03 v -47.0005 h -83.4785 v 57.523 l 69.4485,31.5675 z"
       style="font-size:175.375px;font-family:'Simply Square JL';-inkscape-font-specification:'Simply Square JL, Normal'"
       id="path31483" /><path
       d="M 3195.3194,1421.1735 V 1294.202 h 33.672 v -13.3285 h -83.4785 v 13.3285 h 35.7765 v 126.9715 z"
       style="font-size:175.375px;font-family:'Simply Square JL';-inkscape-font-specification:'Simply Square JL, Normal'"
       id="path31485" /><path
       d="m 3250.6393,1294.202 h 56.12 v 66.6425 h -56.12 z m -13.3285,126.9715 h 14.03 v -46.299 h 55.4185 v 46.299 h 14.03 v -140.3 h -83.4785 z"
       style="font-size:175.375px;font-family:'Simply Square JL';-inkscape-font-specification:'Simply Square JL, Normal'"
       id="path31487" /><path
       d="M 3384.3956,1421.1735 V 1294.202 h 33.672 v -13.3285 h -83.4785 v 13.3285 h 35.7765 v 126.9715 z"
       style="font-size:175.375px;font-family:'Simply Square JL';-inkscape-font-specification:'Simply Square JL, Normal'"
       id="path31489" /><path
       d="m 3426.387,1421.1735 h 13.3285 l 0.3507,-140.3 h -13.6792 z"
       style="font-size:175.375px;font-family:'Simply Square JL';-inkscape-font-specification:'Simply Square JL, Normal'"
       id="path31491" /><path
       d="m 3523.5803,1407.1435 h -56.12 V 1294.202 h 56.12 v 39.284 h 14.03 v -52.6125 h -83.4785 v 140.3 h 84.18 v -55.4185 l -14.7315,0.1754 z"
       style="font-size:175.375px;font-family:'Simply Square JL';-inkscape-font-specification:'Simply Square JL, Normal'"
       id="path31493" /><path
       d="m 2942.1163,1798.5805 v -17.8882 l 45.5975,-0.3508 v 18.239 z"
       style="font-size:175.375px;font-family:'Simply Square JL';-inkscape-font-specification:'Simply Square JL, Normal'"
       id="path31495" /><path
       d="m 3049.9473,1859.611 v -140.3 h 14.03 v 126.9715 h 55.4185 V 1719.311 h 14.03 v 140.3 z"
       style="font-size:175.375px;font-family:'Simply Square JL';-inkscape-font-specification:'Simply Square JL, Normal'"
       id="path31497" /><path
       d="m 3216.6741,1845.581 h -56.12 v -37.1795 h -13.3285 v 51.2095 h 83.4785 v -62.4335 l -70.15,-29.463 v -35.075 h 56.12 v 33.672 h 14.03 v -47.0005 h -83.4785 v 57.523 l 69.4485,31.5675 z"
       style="font-size:175.375px;font-family:'Simply Square JL';-inkscape-font-specification:'Simply Square JL, Normal'"
       id="path31499" /><path
       d="m 3312.9413,1782.446 h -56.8215 v -49.8065 h 70.15 v -13.3285 h -83.4785 v 140.3 h 83.4785 v -14.03 h -70.15 v -49.105 h 56.8215 z"
       style="font-size:175.375px;font-family:'Simply Square JL';-inkscape-font-specification:'Simply Square JL, Normal'"
       id="path31501" /><path
       d="m 3344.4923,1859.611 v -63.135 h 30.866 l 25.254,25.254 v 37.881 h 14.3808 l 0.1753,-43.1422 -20.1681,-19.9928 h 19.642 v -77.165 h -83.4785 v 140.3 z m 56.12,-77.165 h -56.12 v -49.8065 h 56.12 z"
       style="font-size:175.375px;font-family:'Simply Square JL';-inkscape-font-specification:'Simply Square JL, Normal'"
       id="path31503" /><path
       d="m 3431.2481,1798.5805 v -17.8882 l 45.5975,-0.3508 v 18.239 z"
       style="font-size:175.375px;font-family:'Simply Square JL';-inkscape-font-specification:'Simply Square JL, Normal'"
       id="path31505" /><path
       d="m 3505.1386,1845.581 v -49.105 h 48.0527 l 8.0673,8.0673 v 41.0377 z m -13.3285,14.03 h 83.8292 v -57.8737 l -10.8732,-10.8733 10.5225,-7.7165 v -63.8365 h -83.4785 z m 13.3285,-77.165 v -49.8065 h 56.12 v 45.2468 l -5.9628,4.5597 z"
       style="font-size:175.375px;font-family:'Simply Square JL';-inkscape-font-specification:'Simply Square JL, Normal'"
       id="path31507" /><path
       d="m 3602.0743,1732.6395 h 56.12 v 66.6425 h -56.12 z m -13.3285,126.9715 h 14.03 v -46.299 h 55.4185 v 46.299 h 14.03 v -140.3 h -83.4785 z"
       style="font-size:175.375px;font-family:'Simply Square JL';-inkscape-font-specification:'Simply Square JL, Normal'"
       id="path31509" /><path
       d="m 3755.4727,1845.581 h -56.12 v -37.1795 h -13.3285 v 51.2095 h 83.4785 v -62.4335 l -70.15,-29.463 v -35.075 h 56.12 v 33.672 h 14.03 v -47.0005 h -83.4785 v 57.523 l 69.4485,31.5675 z"
       style="font-size:175.375px;font-family:'Simply Square JL';-inkscape-font-specification:'Simply Square JL, Normal'"
       id="path31511" /><path
       d="m 3851.7398,1782.446 h -56.8215 v -49.8065 h 70.15 v -13.3285 h -83.4785 v 140.3 h 83.4785 v -14.03 h -70.15 v -49.105 h 56.8215 z"
       style="font-size:175.375px;font-family:'Simply Square JL';-inkscape-font-specification:'Simply Square JL, Normal'"
       id="path31513" /><path
       d="m 3883.2909,1845.581 v -112.9415 h 56.12 v 98.9115 l -22.448,14.03 z m -13.3285,14.03 h 52.6125 l 30.866,-20.3435 V 1719.311 h -83.4785 z"
       style="font-size:175.375px;font-family:'Simply Square JL';-inkscape-font-specification:'Simply Square JL, Normal'"
       id="path31515" /><path
       d="m 2942.1163,2237.018 v -17.8882 l 45.5975,-0.3508 v 18.239 z"
       style="font-size:175.375px;font-family:'Simply Square JL';-inkscape-font-specification:'Simply Square JL, Normal'"
       id="path31517" /><path
       d="m 3049.9473,2298.0485 h 13.3285 l 0.3507,-140.3 h -13.6792 z"
       style="font-size:175.375px;font-family:'Simply Square JL';-inkscape-font-specification:'Simply Square JL, Normal'"
       id="path31519" /><path
       d="m 3157.6631,2298.0485 v -140.3 h -15.433 V 2270.69 l -44.896,-112.9415 h -19.642 v 140.3 h 15.433 V 2190.719 l 42.7915,107.3295 z"
       style="font-size:175.375px;font-family:'Simply Square JL';-inkscape-font-specification:'Simply Square JL, Normal'"
       id="path31521" /><path
       d="m 3241.3362,2284.0185 h -56.12 V 2171.077 h 56.12 v 39.284 h 14.03 v -52.6125 h -83.4785 v 140.3 h 84.18 V 2242.63 l -14.7315,0.1754 z"
       style="font-size:175.375px;font-family:'Simply Square JL';-inkscape-font-specification:'Simply Square JL, Normal'"
       id="path31523" /><path
       d="m 3280.4393,2298.0485 v -63.135 h 30.866 l 25.254,25.254 v 37.881 h 14.3808 l 0.1754,-43.1422 -20.1682,-19.9928 h 19.642 v -77.165 h -83.4785 v 140.3 z m 56.12,-77.165 h -56.12 v -49.8065 h 56.12 z"
       style="font-size:175.375px;font-family:'Simply Square JL';-inkscape-font-specification:'Simply Square JL, Normal'"
       id="path31525" /><path
       d="m 3434.5392,2220.8835 h -56.8215 v -49.8065 h 70.15 v -13.3285 h -83.4785 v 140.3 h 83.4785 v -14.03 h -70.15 v -49.105 h 56.8215 z"
       style="font-size:175.375px;font-family:'Simply Square JL';-inkscape-font-specification:'Simply Square JL, Normal'"
       id="path31527" /><path
       d="m 3452.7617,2298.0485 h 15.433 V 2190.719 l 42.7915,107.3295 h 12.627 l 39.9855,-107.3295 v 107.3295 h 14.7315 l 0.5261,-140.3 h -20.1681 l -41.3885,112.9415 -44.896,-112.9415 h -19.642 z"
       style="font-size:175.375px;font-family:'Simply Square JL';-inkscape-font-specification:'Simply Square JL, Normal'"
       id="path31529" /><path
       d="m 3663.3487,2220.8835 h -56.8215 v -49.8065 h 70.15 v -13.3285 h -83.4785 v 140.3 h 83.4785 v -14.03 h -70.15 v -49.105 h 56.8215 z"
       style="font-size:175.375px;font-family:'Simply Square JL';-inkscape-font-specification:'Simply Square JL, Normal'"
       id="path31531" /><path
       d="m 3761.5423,2298.0485 v -140.3 h -15.433 V 2270.69 l -44.896,-112.9415 h -19.642 v 140.3 h 15.433 V 2190.719 l 42.7915,107.3295 z"
       style="font-size:175.375px;font-family:'Simply Square JL';-inkscape-font-specification:'Simply Square JL, Normal'"
       id="path31533" /><path
       d="M 3825.5733,2298.0485 V 2171.077 h 33.672 v -13.3285 h -83.4785 v 13.3285 h 35.7765 v 126.9715 z"
       style="font-size:175.375px;font-family:'Simply Square JL';-inkscape-font-specification:'Simply Square JL, Normal'"
       id="path31535" /><path
       d="m 3880.8932,2171.077 h 56.12 v 66.6425 h -56.12 z m -13.3285,126.9715 h 14.03 v -46.299 h 55.4185 v 46.299 h 14.03 v -140.3 h -83.4785 z"
       style="font-size:175.375px;font-family:'Simply Square JL';-inkscape-font-specification:'Simply Square JL, Normal'"
       id="path31537" /><path
       d="m 3978.1715,2284.0185 v -126.27 h -13.3285 v 140.3 h 83.4785 v -14.03 z"
       style="font-size:175.375px;font-family:'Simply Square JL';-inkscape-font-specification:'Simply Square JL, Normal'"
       id="path31539" /></g></svg>
