<?xml version="1.0" encoding="UTF-8" standalone="no"?>
<svg
   viewBox="0 0 1942.1455 1942.136"
   height="1942.136"
   width="1942.1455"
   xml:space="preserve"
   id="svg2"
   version="1.1"
   sodipodi:docname="slack-archive-logo.svg"
   inkscape:version="1.1 (c4e8f9e, 2021-05-24)"
   xmlns:inkscape="http://www.inkscape.org/namespaces/inkscape"
   xmlns:sodipodi="http://sodipodi.sourceforge.net/DTD/sodipodi-0.dtd"
   xmlns="http://www.w3.org/2000/svg"
   xmlns:svg="http://www.w3.org/2000/svg"
   xmlns:rdf="http://www.w3.org/1999/02/22-rdf-syntax-ns#"
   xmlns:cc="http://creativecommons.org/ns#"
   xmlns:dc="http://purl.org/dc/elements/1.1/"><sodipodi:namedview
     id="namedview834"
     pagecolor="#ffffff"
     bordercolor="#666666"
     borderopacity="1.0"
     inkscape:pageshadow="2"
     inkscape:pageopacity="0.0"
     inkscape:pagecheckerboard="0"
     showgrid="false"
     inkscape:zoom="0.3"
     inkscape:cx="888.33333"
     inkscape:cy="1048.3333"
     inkscape:window-width="1920"
     inkscape:window-height="1027"
     inkscape:window-x="0"
     inkscape:window-y="25"
     inkscape:window-maximized="0"
     inkscape:current-layer="svg2"
     showguides="true"
     inkscape:guide-bbox="true"
     fit-margin-top="0"
     fit-margin-left="0"
     fit-margin-right="0"
     fit-margin-bottom="0"
     lock-margins="false"
     viewbox-width="2829.6965" /><metadata
     id="metadata8"><rdf:RDF><cc:Work
         rdf:about=""><dc:format>image/svg+xml</dc:format><dc:type
           rdf:resource="http://purl.org/dc/dcmitype/StillImage" /></cc:Work></rdf:RDF></metadata><defs
     id="defs6" /><g
     transform="matrix(1.3333333,0,0,-1.3333333,-442.10927,2390.2727)"
     id="g10"
     style="fill-rule:nonzero"><g
       transform="scale(0.1)"
       id="g12"
       style="fill-rule:nonzero"><g
         transform="scale(1.30325)"
         id="g14"
         style="fill-rule:nonzero"><path
           id="path16"
           style="fill:#de0446;fill-opacity:1;fill-rule:nonzero;stroke:none;stroke-width:0.68569"
           d="M 2544.2698,2578.9566 H 13721.014 V 13755.646 H 2544.2698 V 2578.9566" /></g></g></g><g
     id="g2223"
     transform="translate(-3.0932161,-89.3635)"><path
       id="path18"
       style="fill:#ffffff;fill-opacity:1;fill-rule:evenodd;stroke:none"
       d="m 12761.1,13333.1 c 96.6,168.1 193.2,334.9 289.8,503.1 l 2.5,3.7 h 117.9 599.7 l -3.8,-3.7 -289.8,-504.4 c -238.3,1.3 -478,1.3 -716.3,1.3 z m -796.6,-3344.6 357.5,-621 567,982.3 2012.3,3486.4 567.1,981 h -716.4 -219.5 c -593.4,1.2 -1185.6,2.5 -1777.7,3.7 v -3.7 h -264.7 l -567.1,-981 -523.1,-905.8 -146.7,-254.7 -420.3,-727.6 567,-982.3 c 267.2,462.9 533.2,925.8 799.2,1388.8 h 21.3 692.5 l -590.9,-1022.5 -567.1,-982.3 209.6,-361.3"
       transform="matrix(0.13333333,0,0,-0.13333333,-442.10927,2390.2727)" /><path
       id="path20"
       style="fill:#de0446;fill-opacity:1;fill-rule:evenodd;stroke:none"
       d="m 9235.87,14817.2 1386.23,-2398.7 1385,2398.7 z"
       transform="matrix(0.13333333,0,0,-0.13333333,-442.10927,2390.2727)" /><path
       id="path22"
       style="fill:#ffffff;fill-opacity:1;fill-rule:evenodd;stroke:none"
       d="m 8042.8,13836.2 802.89,-1391.3 h 1132.85 l -802.89,1391.3 -567.06,981 H 7475.77 6908.7 5774.61 l 567.06,-981 1086.44,-1881.8 565.77,-981.1 h 1134.08 253.43 313.62 L 10905.6,8877 l -283.5,-490.5 -1210.62,2095 H 8277.41 L 10055.1,7404.2 v 0 l 567,-982.3 565.8,982.3 283.5,490.5 567.1,982.3 -567.1,982.3 -642.3,1114 -567,981.1 H 9127.96 8697.67 8560.93 l -1085.16,1881.8 h 567.03"
       transform="matrix(0.13333333,0,0,-0.13333333,-442.10927,2390.2727)" /><g
       fill="none"
       id="g926"
       transform="matrix(1.5092007,0,0,1.5092007,878.15203,425.33751)"
       style="fill:#000000"><path
         d="m 27.2,95.504138 c 0,7.300012 -5.9,13.200032 -13.2,13.200032 -7.3,0 -13.2,-5.90002 -13.2,-13.200032 0,-7.3 5.9,-13.2 13.2,-13.2 h 13.2 z m 6.6,0 c 0,-7.3 5.9,-13.2 13.2,-13.2 7.3,0 13.2,5.9 13.2,13.2 v 33.000052 c 0,7.3 -5.9,13.2 -13.2,13.2 -7.3,0 -13.2,-5.9 -13.2,-13.2 z"
         fill="#e01e5a"
         id="path918"
         style="fill:#ffffff;fill-opacity:1" /><path
         d="m 47,42.504138 c -7.3,0 -13.2,-5.9 -13.2,-13.2 0,-7.300001 5.9,-13.200004 13.2,-13.200004 7.3,0 13.2,5.900003 13.2,13.200004 v 13.2 z m 0,6.7 c 7.3,0 13.2,5.9 13.2,13.2 0,7.3 -5.9,13.2 -13.2,13.2 H 13.9 c -7.3,0 -13.2,-5.9 -13.2,-13.2 0,-7.3 5.9,-13.2 13.2,-13.2 z"
         fill="#36c5f0"
         id="path920"
         style="fill:#ffffff;fill-opacity:1" /><path
         d="m 99.9,62.404138 c 0,-7.3 5.9,-13.2 13.2,-13.2 7.3,0 13.2,5.9 13.2,13.2 0,7.3 -5.9,13.2 -13.2,13.2 H 99.9 Z m -6.6,0 c 0,7.3 -5.9,13.2 -13.2,13.2 -7.3,0 -13.2,-5.9 -13.2,-13.2 v -33.1 c 0,-7.300001 5.9,-13.200004 13.2,-13.200004 7.3,0 13.2,5.900003 13.2,13.200004 z"
         fill="#2eb67d"
         id="path922"
         style="fill:#ffffff;fill-opacity:1" /><path
         d="m 80.1,115.30419 c 7.3,0 13.2,5.9 13.2,13.2 0,7.3 -5.9,13.2 -13.2,13.2 -7.3,0 -13.2,-5.9 -13.2,-13.2 v -13.2 z m 0,-6.60002 c -7.3,0 -13.2,-5.90002 -13.2,-13.200032 0,-7.3 5.9,-13.2 13.2,-13.2 h 33.1 c 7.3,0 13.2,5.9 13.2,13.2 0,7.300012 -5.9,13.200032 -13.2,13.200032 z"
         fill="#ecb22e"
         id="path924"
         style="fill:#ffffff;fill-opacity:1" /></g></g><g
     aria-label="SLACK-ARCHIVE"
     id="text2913"
     style="font-size:276.608px;line-height:1.25;font-family:'Simply Square JL';-inkscape-font-specification:'Simply Square JL, Normal';fill:#ffffff;stroke-width:6.91521"><path
       d="M 186.18522,1762.428 H 97.670661 v -58.6409 H 76.648453 v 80.7695 H 208.31386 v -98.4724 L 97.670661,1639.614 v -55.3216 h 88.514559 v 53.1088 h 22.12864 v -74.131 H 76.648453 v 90.7275 l 109.536767,49.7894 z"
       id="path923" /><path
       d="M 248.40041,1762.428 V 1563.2702 H 227.3782 v 221.2864 h 131.66541 v -22.1286 z"
       id="path925" /><path
       d="m 383.4629,1584.2924 h 88.51456 v 105.1111 H 383.4629 Z m -21.02221,200.2642 h 22.12864 v -73.0245 h 87.40813 v 73.0245 H 494.1061 V 1563.2702 H 362.44069 Z"
       id="path927" /><path
       d="m 625.40849,1762.428 h -88.51456 v -178.1356 h 88.51456 v 61.9602 h 22.12864 v -82.9824 H 515.87172 v 221.2864 h 132.77184 v -87.4081 l -23.23507,0.2766 z"
       id="path929" /><path
       d="m 803.25874,1563.2702 h -29.87366 l -86.3017,86.3017 0.55322,-86.3017 h -21.57543 v 221.2864 h 21.02221 v -106.2174 l 25.44794,-25.448 66.38592,131.6654 h 25.44793 l -74.13094,-148.2618 z"
       id="path931" /><path
       d="m 823.91793,1688.2971 v -28.2141 l 71.91808,-0.5532 v 28.7673 z"
       id="path933" /><path
       d="m 940.46064,1584.2924 h 88.51456 v 105.1111 h -88.51456 z m -21.02221,200.2642 h 22.12864 v -73.0245 h 87.40813 v 73.0245 h 22.1286 V 1563.2702 H 919.43843 Z"
       id="path935" /><path
       d="m 1093.8917,1784.5566 v -99.5788 h 48.683 l 39.8315,39.8315 v 59.7473 h 22.6819 l 0.2766,-68.0455 -31.8099,-31.5333 h 30.9801 v -121.7076 h -131.6654 v 221.2864 z m 88.5145,-121.7075 h -88.5145 v -78.5567 h 88.5145 z"
       id="path937" /><path
       d="m 1335.8372,1762.428 h -88.5146 v -178.1356 h 88.5146 v 61.9602 h 22.1286 v -82.9824 h -131.6654 v 221.2864 h 132.7719 v -87.4081 l -23.2351,0.2766 z"
       id="path939" /><path
       d="m 1376.49,1784.5566 h 21.0222 v -99.5788 h 87.4081 v 99.5788 h 23.2351 v -221.2864 h -22.1286 v 99.5789 h -88.5146 l 0.5532,-99.5789 H 1376.49 Z"
       id="path941" /><path
       d="m 1530.4612,1784.5566 h 21.0222 l 0.5532,-221.2864 h -21.5754 z"
       id="path943" /><path
       d="m 1654.991,1784.5566 h -25.4479 l -55.3216,-221.2864 h 24.3415 l 44.2572,175.9227 47.5766,-177.0291 h 27.6608 z"
       id="path945" /><path
       d="m 1844.7787,1662.8491 h -89.621 v -78.5567 h 110.6432 v -21.0222 h -131.6654 v 221.2864 h 131.6654 v -22.1286 h -110.6432 v -77.4502 h 89.621 z"
       id="path947" /></g></svg>
